<?xml version="1.0" standalone="no"?>
<!DOCTYPE svg PUBLIC "-//W3C//DTD SVG 20010904//EN"
 "http://www.w3.org/TR/2001/REC-SVG-20010904/DTD/svg10.dtd">
<svg version="1.0" xmlns="http://www.w3.org/2000/svg"
 width="700.000000pt" height="700.000000pt" viewBox="0 0 700.000000 700.000000"
 preserveAspectRatio="xMidYMid meet">
<metadata>
Created by potrace 1.14, written by Peter Selinger 2001-2017
</metadata>
<g transform="translate(0.000000,700.000000) scale(0.100000,-0.100000)"
fill="#000000" stroke="none">
<path d="M3689 6966 c-84 -29 -127 -68 -165 -150 l-24 -51 1 -519 0 -518 29
-58 c100 -199 366 -197 467 2 l27 53 0 525 0 525 -26 51 c-28 53 -77 103 -128
129 -40 20 -137 26 -181 11z"/>
<path d="M5780 6096 c-26 -7 -62 -22 -80 -34 -19 -11 -193 -180 -386 -374
-250 -251 -357 -365 -368 -393 -40 -96 -24 -209 41 -285 72 -84 213 -111 314
-60 29 15 165 143 397 374 364 363 396 401 405 486 19 184 -147 331 -323 286z"/>
<path d="M1468 5975 c-2 -2 -21 -5 -44 -8 -214 -30 -382 -248 -369 -479 7
-108 52 -223 113 -287 13 -13 2412 -2423 3889 -3905 266 -267 313 -296 493
-301 245 -7 445 187 456 441 4 92 -11 159 -53 242 -32 65 107 -77 -1838 1877
-765 768 -1599 1607 -1855 1865 -480 482 -495 495 -613 535 -38 13 -171 28
-179 20z m183 -420 c19 -10 321 -306 672 -659 l637 -641 -102 -102 -103 -103
-638 637 c-376 376 -647 654 -659 677 -69 133 59 259 193 191z"/>
<path d="M5735 4019 c-78 -16 -134 -56 -183 -132 -24 -37 -27 -52 -27 -122 0
-69 4 -86 27 -127 16 -25 45 -60 65 -77 75 -62 77 -62 649 -59 514 3 519 3
560 25 199 106 199 368 0 470 l-51 27 -505 1 c-278 0 -519 -2 -535 -6z"/>
<path d="M220 3491 c-144 -44 -226 -190 -185 -328 25 -83 106 -159 190 -179
23 -6 252 -10 545 -9 491 1 506 2 550 22 56 26 89 55 126 113 26 40 29 54 29
125 0 69 -4 86 -27 127 -36 60 -86 101 -150 122 -44 14 -114 16 -552 15 -275
0 -512 -4 -526 -8z"/>
<path d="M1748 2066 c-26 -7 -64 -25 -85 -39 -21 -15 -196 -185 -388 -379
-320 -323 -351 -357 -364 -402 -32 -113 -7 -211 71 -282 54 -48 101 -66 175
-67 112 0 128 12 519 405 227 228 359 368 373 396 28 55 34 142 14 204 -42
128 -181 200 -315 164z"/>
<path d="M3170 1470 c-46 -13 -86 -38 -123 -79 -73 -80 -70 -57 -70 -636 l-1
-520 23 -53 c92 -208 378 -209 479 -1 21 43 21 51 19 574 l-2 530 -25 49 c-56
110 -183 167 -300 136z"/>
</g>
</svg>
